<?xml version="1.0" encoding="UTF-8" standalone="no"?>
<svg
   xmlns:dc="http://purl.org/dc/elements/1.1/"
   xmlns:cc="http://creativecommons.org/ns#"
   xmlns:rdf="http://www.w3.org/1999/02/22-rdf-syntax-ns#"
   xmlns:svg="http://www.w3.org/2000/svg"
   xmlns="http://www.w3.org/2000/svg"
   viewBox="0 0 377.95334 163.832"
   height="163.832"
   width="377.95334"
   xml:space="preserve"
   id="svg2"
   version="1.1"><metadata
     id="metadata8"><rdf:RDF><cc:Work
         rdf:about=""><dc:format>image/svg+xml</dc:format><dc:type
           rdf:resource="http://purl.org/dc/dcmitype/StillImage" /></cc:Work></rdf:RDF></metadata><defs
     id="defs6"><radialGradient
       id="radialGradient30"
       spreadMethod="pad"
       gradientTransform="matrix(20.570776,0,0,-20.570776,65.984123,51.465877)"
       gradientUnits="userSpaceOnUse"
       r="1"
       cy="0"
       cx="0"
       fy="0"
       fx="0"><stop
         id="stop24"
         offset="0"
         style="stop-opacity:1;stop-color:#feeb27" /><stop
         id="stop26"
         offset="0.402406"
         style="stop-opacity:1;stop-color:#feeb27" /><stop
         id="stop28"
         offset="1"
         style="stop-opacity:1;stop-color:#f79529" /></radialGradient><radialGradient
       id="radialGradient52"
       spreadMethod="pad"
       gradientTransform="matrix(20.566025,0,0,-20.566025,110.99468,51.475365)"
       gradientUnits="userSpaceOnUse"
       r="1"
       cy="0"
       cx="0"
       fy="0"
       fx="0"><stop
         id="stop46"
         offset="0"
         style="stop-opacity:1;stop-color:#feeb27" /><stop
         id="stop48"
         offset="0.402406"
         style="stop-opacity:1;stop-color:#feeb27" /><stop
         id="stop50"
         offset="1"
         style="stop-opacity:1;stop-color:#f79529" /></radialGradient><radialGradient
       id="radialGradient74"
       spreadMethod="pad"
       gradientTransform="matrix(20.570778,0,0,-20.570778,156.00525,51.465877)"
       gradientUnits="userSpaceOnUse"
       r="1"
       cy="0"
       cx="0"
       fy="0"
       fx="0"><stop
         id="stop68"
         offset="0"
         style="stop-opacity:1;stop-color:#feeb27" /><stop
         id="stop70"
         offset="0.402406"
         style="stop-opacity:1;stop-color:#feeb27" /><stop
         id="stop72"
         offset="1"
         style="stop-opacity:1;stop-color:#f79529" /></radialGradient><radialGradient
       id="radialGradient96"
       spreadMethod="pad"
       gradientTransform="matrix(20.570778,0,0,-20.570778,201.01581,51.465877)"
       gradientUnits="userSpaceOnUse"
       r="1"
       cy="0"
       cx="0"
       fy="0"
       fx="0"><stop
         id="stop90"
         offset="0"
         style="stop-opacity:1;stop-color:#feeb27" /><stop
         id="stop92"
         offset="0.402406"
         style="stop-opacity:1;stop-color:#feeb27" /><stop
         id="stop94"
         offset="1"
         style="stop-opacity:1;stop-color:#f79529" /></radialGradient><radialGradient
       id="radialGradient118"
       spreadMethod="pad"
       gradientTransform="matrix(20.570772,0,0,-20.570772,246.02638,51.465877)"
       gradientUnits="userSpaceOnUse"
       r="1"
       cy="0"
       cx="0"
       fy="0"
       fx="0"><stop
         id="stop112"
         offset="0"
         style="stop-opacity:1;stop-color:#feeb27" /><stop
         id="stop114"
         offset="0.402406"
         style="stop-opacity:1;stop-color:#feeb27" /><stop
         id="stop116"
         offset="1"
         style="stop-opacity:1;stop-color:#f79529" /></radialGradient><linearGradient
       id="linearGradient142"
       spreadMethod="pad"
       gradientTransform="matrix(164.06038,0,0,-164.06038,51.027897,92.02459)"
       gradientUnits="userSpaceOnUse"
       y2="0"
       x2="1"
       y1="0"
       x1="0"><stop
         id="stop134"
         offset="0"
         style="stop-opacity:1;stop-color:#f79529" /><stop
         id="stop136"
         offset="0.402406"
         style="stop-opacity:1;stop-color:#feeb27" /><stop
         id="stop138"
         offset="0.999339"
         style="stop-opacity:1;stop-color:#ffffff" /><stop
         id="stop140"
         offset="1"
         style="stop-opacity:1;stop-color:#ffffff" /></linearGradient><clipPath
       id="clipPath152"
       clipPathUnits="userSpaceOnUse"><path
         id="path150"
         d="M 0,122.874 H 283.465 V 0 H 0 Z" /></clipPath></defs><g
     transform="matrix(1.3333333,0,0,-1.3333333,0,163.832)"
     id="g10"><g
       id="g12"><g
         id="g14"><g
           id="g20"><g
             id="g22"><path
               id="path32"
               style="fill:url(#radialGradient30);stroke:none"
               d="m 45.413,51.466 c 0,-2.218 0.356,-4.351 1.004,-6.353 v 0 C 49.095,36.862 56.84,30.895 65.984,30.895 v 0 c 3.401,0 6.607,0.831 9.434,2.293 v 0 c 2.721,1.407 5.088,3.402 6.932,5.819 v 0 c 0.571,0.75 1.09,1.54 1.556,2.364 v 0 c 1.684,2.983 2.649,6.425 2.649,10.095 v 0 c 0,4.815 -1.659,9.24 -4.43,12.745 v 0 c -1.336,1.69 -2.929,3.168 -4.726,4.368 v 0 c -3.266,2.183 -7.191,3.458 -11.415,3.458 v 0 c -11.361,0 -20.571,-9.21 -20.571,-20.571" /></g></g></g></g><g
       id="g34"><g
         id="g36"><g
           id="g42"><g
             id="g44"><path
               id="path54"
               style="fill:url(#radialGradient52);stroke:none"
               d="m 99.714,68.665 c -0.985,-0.647 -1.91,-1.377 -2.767,-2.178 v 0 h -0.48 l 0.002,-0.457 c -0.552,-0.55 -1.07,-1.135 -1.558,-1.747 v 0 C 92.105,60.768 90.424,56.314 90.424,51.466 v 0 c 0,-4.889 1.709,-9.377 4.558,-12.907 v 0 c 0.49,-0.608 1.012,-1.187 1.566,-1.734 v 0 c 1.521,-1.499 3.273,-2.761 5.199,-3.732 v 0 c 2.57,-1.297 5.448,-2.069 8.498,-2.179 v 0 h 1.5 c 3.049,0.11 5.927,0.882 8.498,2.179 v 0 c 0,0 1.741,0.922 3.304,2.074 v 0 l -10e-4,0.006 c 0.546,0.421 1.069,0.869 1.569,1.342 v 0 c 3.969,3.75 6.451,9.059 6.451,14.951 v 0 c 0,6.408 -2.931,12.131 -7.524,15.903 v 0 c -0.564,0.463 -1.155,0.894 -1.767,1.296 v 0 c -3.239,2.129 -7.114,3.372 -11.281,3.372 v 0 c -4.166,0 -8.04,-1.243 -11.28,-3.372" /></g></g></g></g><g
       id="g56"><g
         id="g58"><g
           id="g64"><g
             id="g66"><path
               id="path76"
               style="fill:url(#radialGradient74);stroke:none"
               d="m 144.671,68.63 c -0.991,-0.655 -1.92,-1.395 -2.781,-2.208 v 0 c -0.99,-0.934 -1.886,-1.966 -2.675,-3.079 v 0 c -0.579,-0.817 -1.099,-1.678 -1.556,-2.577 v 0 c -1.42,-2.793 -2.224,-5.952 -2.224,-9.3 v 0 c 0,-3.348 0.804,-6.506 2.224,-9.3 v 0 c 0.457,-0.899 0.977,-1.76 1.556,-2.577 v 0 c 1.491,-2.104 3.366,-3.916 5.525,-5.332 v 0 c 0.706,-0.463 1.442,-0.885 2.205,-1.26 v 0 c 2.734,-1.344 5.808,-2.102 9.06,-2.102 v 0 c 1.932,0 3.8,0.272 5.573,0.771 v 0 c 1.281,0.359 2.509,0.838 3.676,1.427 v 0 c 1.224,0.617 2.377,1.354 3.447,2.193 v 0 c 0.693,0.545 1.35,1.13 1.968,1.757 v 0 c 3.652,3.714 5.907,8.804 5.907,14.423 v 0 c 0,11.361 -9.21,20.571 -20.571,20.571 v 0 c -4.189,0 -8.084,-1.256 -11.334,-3.407" /></g></g></g></g><g
       id="g78"><g
         id="g80"><g
           id="g86"><g
             id="g88"><path
               id="path98"
               style="fill:url(#radialGradient96);stroke:none"
               d="m 180.445,51.466 c 0,-5.034 1.81,-9.643 4.813,-13.219 v 0 c 0.399,-0.476 0.819,-0.935 1.26,-1.372 v 0 c 1.311,-1.302 2.798,-2.427 4.42,-3.34 v 0 c 2.979,-1.679 6.415,-2.64 10.078,-2.64 v 0 c 0.514,0 1.022,0.025 1.527,0.062 v 0 c 10.647,0.782 19.043,9.662 19.043,20.509 v 0 c 0,6.139 -2.692,11.646 -6.956,15.415 v 0 0.328 c -0.208,0.064 -0.402,0.123 -0.591,0.179 v 0 c -3.547,2.905 -8.081,4.649 -13.023,4.649 v 0 c -11.361,0 -20.571,-9.21 -20.571,-20.571" /></g></g></g></g><g
       id="g100"><g
         id="g102"><g
           id="g108"><g
             id="g110"><path
               id="path120"
               style="fill:url(#radialGradient118);stroke:none"
               d="m 225.455,51.466 c 0,-4.119 1.215,-7.951 3.3,-11.168 v 0 c 0.09,-0.138 0.178,-0.278 0.272,-0.415 v 0 c 1.549,-2.27 3.546,-4.211 5.858,-5.705 v 0 l -0.293,-0.648 h 0.573 l 0.163,0.363 c 3.118,-1.902 6.78,-2.998 10.699,-2.998 v 0 c 3.539,0 6.869,0.895 9.778,2.469 v 0 c 0.682,0.37 1.338,0.78 1.972,1.222 v 0 c 1.599,1.115 3.032,2.45 4.255,3.964 v 0 c 0.562,0.695 1.081,1.426 1.55,2.191 v 0 c 1.912,3.123 3.015,6.795 3.015,10.725 v 0 c 0,11.361 -9.21,20.571 -20.57,20.571 v 0 c -11.362,0 -20.572,-9.21 -20.572,-20.571" /></g></g></g></g><g
       id="g122"><g
         id="g124"><g
           id="g130"><g
             id="g132"><path
               id="path144"
               style="fill:url(#linearGradient142);stroke:none"
               d="M 51.028,100.702 V 86.754 l 164.06,-13.067 v 36.676 z" /></g></g></g></g><g
       id="g146"><g
         clip-path="url(#clipPath152)"
         id="g148"><g
           transform="translate(113.1988,94.6654)"
           id="g154"><path
             id="path156"
             style="fill:#231f20;fill-opacity:1;fill-rule:nonzero;stroke:none"
             d="m 0,0 v -4.018 h 3.373 v -1.73 c -0.198,-0.006 -0.411,-0.01 -0.64,-0.01 -3.003,0 -6.212,1.16 -6.212,4.419 0,1.536 0.694,2.551 1.667,3.222 1.486,0.653 3.263,0.768 4.323,0.768 1.922,0 3.385,-0.168 4.743,-0.544 l 0.588,-0.163 0.907,0.499 1.568,4.009 -0.705,0.21 c -0.545,0.163 -2.61,0.693 -6.273,0.693 -4.078,0 -7.457,-0.823 -9.856,-2.283 -3.07,-1.521 -4.851,-3.942 -4.883,-6.976 -0.031,-2.646 1.344,-4.994 3.766,-6.439 2.243,-1.36 5.335,-2.022 9.455,-2.022 2.734,0 5.751,0.399 7.529,0.794 l 0.529,0.117 0.907,0.499 V 0.499 H 0.907 Z" /></g><g
           transform="translate(134.6682,94.9264)"
           id="g158"><path
             id="path160"
             style="fill:#231f20;fill-opacity:1;fill-rule:nonzero;stroke:none"
             d="M 0,0 H -1.135 V 2.646 C -0.97,2.649 -0.79,2.651 -0.589,2.651 0.582,2.643 2.542,2.432 2.542,1.122 2.542,0.815 2.403,0.541 2.148,0.308 1.578,0.111 0.848,0 0,0 m 10.946,-8.876 c -0.336,0.419 -0.963,2.039 -1.466,3.341 -0.107,0.277 -0.214,0.553 -0.319,0.821 -0.469,1.212 -1.142,2.089 -2.066,2.678 0.015,0.01 0.032,0.02 0.047,0.03 1.902,0.884 3.06,2.318 3.06,3.912 0,1.673 -0.867,2.971 -2.577,3.857 C 5.9,6.652 3.444,7.049 -0.337,7.049 -2.853,7.049 -5.373,6.929 -7.252,6.72 L -7.853,6.653 -8.76,6.154 v -16.629 h 6.718 l 0.907,0.499 v 5.638 c 1.77,-0.04 2.376,-0.477 2.862,-2.014 0.615,-1.877 1.249,-3.326 1.696,-3.874 l 0.203,-0.249 h 7.296 l 0.907,0.499 z" /></g><g
           transform="translate(159.5031,101.3705)"
           id="g162"><path
             id="path164"
             style="fill:#231f20;fill-opacity:1;fill-rule:nonzero;stroke:none"
             d="m 0,0 v -9.977 c 0,-1.085 -0.266,-1.86 -0.826,-2.36 -0.425,-0.136 -0.93,-0.204 -1.525,-0.204 -2.154,0 -3.202,1.002 -3.202,3.063 v 9.977 h -6.762 L -13.222,0 v -9.645 c 0,-6.205 5.349,-7.507 9.836,-7.507 3.026,0 5.422,0.57 7.125,1.658 2.567,1.215 3.93,3.361 3.93,6.328 V 0.499 H 0.907 Z" /></g><g
           transform="translate(178.073,94.5157)"
           id="g166"><path
             id="path168"
             style="fill:#231f20;fill-opacity:1;fill-rule:nonzero;stroke:none"
             d="m 0,0 c -0.349,0 -0.635,0.005 -0.878,0.017 v 2.985 c 0.122,0.002 0.252,0.003 0.391,0.003 1.009,0 3.356,-0.161 3.356,-1.652 C 2.869,0.941 2.69,0.611 2.392,0.348 1.701,0.104 0.839,0 0,0 M 7.631,6.143 C 5.911,7.041 3.466,7.46 -0.064,7.46 c -2.678,0 -5.01,-0.11 -6.93,-0.324 L -7.596,7.069 -8.502,6.57 v -16.634 h 6.717 l 0.907,0.499 v 5.083 c 0.02,0 0.038,-10e-4 0.058,-10e-4 3.247,0 6.034,0.605 7.845,1.701 0.052,0.032 0.101,0.065 0.152,0.098 0.267,0.125 0.519,0.259 0.754,0.401 1.673,1.009 2.556,2.49 2.556,4.284 0,1.717 -1.044,3.228 -2.856,4.142" /></g><g
           transform="translate(200.9609,88.8183)"
           id="g170"><path
             id="path172"
             style="fill:#231f20;fill-opacity:1;fill-rule:nonzero;stroke:none"
             d="m 0,0 c -2.804,0 -4.479,1.706 -4.479,4.564 0,1.699 0.611,3.01 1.684,3.795 0.55,0.213 1.176,0.325 1.868,0.325 3.24,0 4.39,-2.439 4.39,-4.528 C 3.463,2.413 2.875,1.094 1.819,0.312 1.285,0.107 0.677,0 0,0 m 11.415,4.783 c 0,2.327 -1.017,4.446 -2.863,5.966 -2.015,1.659 -4.927,2.535 -8.423,2.535 -3.016,0 -5.632,-0.696 -7.617,-1.914 -3.074,-1.509 -4.943,-4.121 -4.943,-7.34 0,-5.162 4.53,-8.63 11.271,-8.63 3.182,0 5.829,0.666 7.794,1.882 3.047,1.482 4.781,4.088 4.781,7.501" /></g><g
           transform="translate(113.9569,91.3317)"
           id="g174"><path
             id="path176"
             style="fill:#ffffff;fill-opacity:1;fill-rule:nonzero;stroke:none"
             d="M 0,0 H 3.373 V -3.413 C 2.996,-3.519 2.176,-3.592 1.15,-3.592 c -3.911,0 -6.888,1.723 -6.888,5.095 0,3.586 3.292,5.166 7.573,5.166 2.282,0 3.739,-0.241 4.923,-0.569 L 7.836,8.857 C 6.738,9.183 4.581,9.521 1.756,9.521 -5.558,9.521 -11.345,6.755 -11.4,1.43 c -0.028,-2.406 1.192,-4.513 3.44,-5.854 2.102,-1.274 5.054,-1.923 9.105,-1.923 2.848,0 5.838,0.434 7.382,0.777 V 2.665 L 0,2.665 Z" /></g><g
           transform="translate(133.8433,93.7588)"
           id="g178"><path
             id="path180"
             style="fill:#ffffff;fill-opacity:1;fill-rule:nonzero;stroke:none"
             d="M 0,0 H -1.812 V 4.392 C -1.452,4.457 -0.755,4.503 0.32,4.503 2.776,4.485 4.125,3.694 4.125,2.297 4.125,0.944 2.593,0 0,0 m 5.287,-1.327 v 0.065 c 2.264,0.556 4.239,1.964 4.239,3.844 0,1.403 -0.715,2.481 -2.211,3.256 -1.73,0.892 -4.264,1.211 -7.652,1.211 -2.656,0 -5.113,-0.133 -6.84,-0.325 V -8.623 h 5.365 v 6.14 h 1.393 c 2.11,-0.012 3.081,-0.54 3.695,-2.483 0.612,-1.865 1.216,-3.213 1.578,-3.657 h 5.565 C 9.944,-8.031 9.215,-6.032 8.53,-4.282 7.947,-2.777 7.007,-1.761 5.287,-1.327" /></g><g
           transform="translate(160.2612,91.4009)"
           id="g182"><path
             id="path184"
             style="fill:#ffffff;fill-opacity:1;fill-rule:nonzero;stroke:none"
             d="m 0,0 c 0,-2.639 -1.443,-3.739 -3.934,-3.739 -2.394,0 -3.878,1.171 -3.878,3.739 v 9.301 h -5.41 V 0.332 c 0,-4.63 3.183,-6.831 9.159,-6.831 6.017,0 9.473,2.246 9.473,6.811 v 8.989 l -5.41,0 z" /></g><g
           transform="translate(177.2481,93.348)"
           id="g186"><path
             id="path188"
             style="fill:#ffffff;fill-opacity:1;fill-rule:nonzero;stroke:none"
             d="m 0,0 c -0.667,0 -1.15,0.02 -1.554,0.075 v 4.666 c 0.377,0.062 1.056,0.116 1.973,0.116 2.668,0 4.033,-0.919 4.033,-2.328 C 4.452,0.988 2.831,0 0,0 M 7.318,6.22 C 5.66,7.086 3.227,7.46 -0.064,7.46 -3.031,7.46 -5.29,7.322 -6.919,7.14 V -8.213 h 5.365 v 5.641 c 0.455,-0.037 1.018,-0.059 1.641,-0.059 2.916,0 5.68,0.505 7.495,1.604 1.43,0.862 2.229,2.129 2.229,3.704 0,1.463 -0.932,2.755 -2.493,3.543" /></g><g
           transform="translate(200.136,87.6507)"
           id="g190"><path
             id="path192"
             style="fill:#ffffff;fill-opacity:1;fill-rule:nonzero;stroke:none"
             d="m 0,0 c -3.227,0 -5.155,2.047 -5.155,5.24 0,3.122 1.879,5.296 5.134,5.296 3.377,0 5.067,-2.416 5.067,-5.204 C 5.046,2.268 3.288,0 0,0 m 0.129,13.284 c -6.804,0 -10.977,-3.546 -10.977,-8.079 0,-4.389 3.72,-7.953 10.595,-7.953 6.528,0 10.992,2.871 10.992,8.207 0,4.085 -3.442,7.825 -10.61,7.825" /></g><g
           transform="translate(234.5925,33.5065)"
           id="g194"><path
             id="path196"
             style="fill:#231f20;fill-opacity:1;fill-rule:nonzero;stroke:none"
             d="M 0,0 H 0.572 L 0.736,0.363 C 0.586,0.455 0.44,0.552 0.292,0.648 Z" /></g><g
           transform="translate(214.6305,67.1861)"
           id="g198"><path
             id="path200"
             style="fill:#231f20;fill-opacity:1;fill-rule:nonzero;stroke:none"
             d="M 0,0 C -0.208,0.064 -0.403,0.122 -0.592,0.179 -0.391,0.014 -0.195,-0.157 0,-0.329 Z" /></g><g
           transform="translate(65.9617,51.7549)"
           id="g202"><path
             id="path204"
             style="fill:#231f20;fill-opacity:1;fill-rule:nonzero;stroke:none"
             d="m 0,0 v -2.179 h 16.388 v -10.592 c 0.571,0.749 1.09,1.539 1.556,2.364 l 0,10.407 z" /></g><g
           transform="translate(70.1027,69.0478)"
           id="g206"><path
             id="path208"
             style="fill:#231f20;fill-opacity:1;fill-rule:nonzero;stroke:none"
             d="m 0,0 c -2.635,0 -5.281,-0.325 -7.937,-0.975 -2.657,-0.649 -5.061,-1.699 -7.215,-3.148 -2.043,-1.374 -3.714,-3.143 -5.023,-5.296 1.006,1.198 2.16,2.238 3.467,3.117 2.154,1.45 4.558,2.499 7.215,3.149 2.656,0.65 5.302,0.974 7.937,0.974 2.718,0 5.113,-0.158 7.184,-0.474 2.07,-0.317 3.691,-0.625 4.862,-0.925 l -0.023,-3.358 c 0.741,-0.145 1.176,-0.246 1.176,-0.246 l 0.362,-0.168 0.017,2.489 C 10.686,-3.17 9.093,-1.693 7.297,-0.493 7.258,-0.487 7.223,-0.481 7.184,-0.475 5.113,-0.159 2.718,0 0,0" /></g><g
           transform="translate(61.406,36.8043)"
           id="g210"><path
             id="path212"
             style="fill:#231f20;fill-opacity:1;fill-rule:nonzero;stroke:none"
             d="M 0,0 C 5.139,-2.215 11.518,-1.063 12.85,0 L 12.822,1.49 C 10.279,0.769 5.544,0.459 1.556,2.179 c -5.139,2.215 -7.531,5.759 -7.354,12.229 0.056,2.027 0.52,3.766 1.306,5.243 -1.714,-1.85 -2.776,-4.292 -2.862,-7.422 C -7.531,5.759 -5.139,2.215 0,0" /></g><g
           transform="translate(122.4858,66.463)"
           id="g214"><path
             id="path216"
             style="fill:#231f20;fill-opacity:1;fill-rule:nonzero;stroke:none"
             d="M 0,0 V -3.183 H 1.556 V 0.883 C 0.992,1.346 0.401,1.777 -0.21,2.179 H -22.772 C -23.756,1.531 -24.682,0.802 -25.539,0 Z" /></g><g
           transform="translate(104.5537,39.2568)"
           id="g218"><path
             id="path220"
             style="fill:#231f20;fill-opacity:1;fill-rule:nonzero;stroke:none"
             d="m 0,0 v 7.474 h -1.556 v -9.653 h 20.518 l 0.03,-1.928 c 0.546,0.421 1.069,0.869 1.57,1.342 L 20.518,0 Z" /></g><g
           transform="translate(102.9976,52.2805)"
           id="g222"><path
             id="path224"
             style="fill:#231f20;fill-opacity:1;fill-rule:nonzero;stroke:none"
             d="m 0,0 h 16.776 v -3.371 h 1.557 v 5.55 H 1.556 V 8.821 H 0 Z" /></g><g
           transform="translate(161.1978,65.0009)"
           id="g226"><path
             id="path228"
             style="fill:#231f20;fill-opacity:1;fill-rule:nonzero;stroke:none"
             d="m 0,0 c 1.73,-0.66 5.568,-1.894 7.156,-6.228 0.753,-2.054 0.658,-5.422 -0.501,-7.935 0.006,0.006 0.013,0.012 0.02,0.017 2.536,2.263 3.042,7.353 2.037,10.097 C 7.124,0.284 3.286,1.519 1.556,2.179 -2.172,3.6 -10.804,3.725 -16.527,3.606 -17.518,2.951 -18.447,2.211 -19.308,1.398 -13.671,1.558 -4.006,1.528 0,0" /></g><g
           transform="translate(158.9493,45.2428)"
           id="g230"><path
             id="path232"
             style="fill:#231f20;fill-opacity:1;fill-rule:nonzero;stroke:none"
             d="m 0,0 9.751,-9.98 c 0.693,0.544 1.351,1.13 1.968,1.757 L 2.888,0.815 C 2.007,0.496 1.052,0.228 0,0" /></g><g
           transform="translate(152.0671,52.0692)"
           id="g234"><path
             id="path236"
             style="fill:#231f20;fill-opacity:1;fill-rule:nonzero;stroke:none"
             d="M 0,0 H -4.795 V 8.412 C -5.405,8.38 -5.924,8.329 -6.352,8.259 V -2.179 h 4.796 c 3.197,0 5.721,0.433 7.574,1.298 1.299,0.608 2.141,1.526 2.529,2.755 C 8.257,1.658 7.933,1.466 7.574,1.298 5.721,0.433 3.197,0 0,0" /></g><path
           id="path238"
           style="fill:#231f20;fill-opacity:1;fill-rule:nonzero;stroke:none"
           d="m 146.944,34.233 h 1.556 v 10.579 h -1.556 z" /><g
           transform="translate(206.7481,40.1555)"
           id="g240"><path
             id="path242"
             style="fill:#231f20;fill-opacity:1;fill-rule:nonzero;stroke:none"
             d="m 0,0 c -1.522,-1.197 -4.173,-2.123 -8.222,-1.958 -4.204,0.172 -9.106,1.434 -12.008,2.292 v -2.62 c 2.916,-0.796 6.927,-1.707 10.452,-1.85 C -3.399,-4.397 -0.49,-1.949 0,0" /></g><g
           transform="translate(193.3015,57.2862)"
           id="g244"><path
             id="path246"
             style="fill:#231f20;fill-opacity:1;fill-rule:nonzero;stroke:none"
             d="m 0,0 c -0.006,-0.069 -0.009,-0.139 -0.009,-0.211 -0.069,-3.627 2.512,-4.421 7.177,-5.265 4.665,-0.843 9.727,-0.943 13.201,-6.005 2.149,-3.131 1.532,-6.239 0.275,-8.533 1.974,2.165 4.228,6.417 1.281,10.712 -3.474,5.062 -8.536,5.161 -13.201,6.005 -4.665,0.843 -7.246,1.638 -7.177,5.265 0,0.071 0.003,0.141 0.009,0.211 C 1.573,2.498 1.614,2.795 1.679,3.072 0.626,2.416 0.074,1.421 0,0" /></g><g
           transform="translate(201.8885,68.8383)"
           id="g248"><path
             id="path250"
             style="fill:#231f20;fill-opacity:1;fill-rule:nonzero;stroke:none"
             d="m 0,0 c -2.477,0 -4.749,-0.215 -6.812,-0.642 -0.207,-0.043 -0.408,-0.089 -0.608,-0.136 -1.368,-0.378 -2.773,-0.946 -3.932,-1.803 -0.867,-0.641 -1.914,-1.755 -2.708,-3.223 0.394,0.425 0.789,0.776 1.152,1.045 1.159,0.857 2.564,1.425 3.932,1.802 0.2,0.047 0.401,0.093 0.608,0.136 2.063,0.428 4.335,0.642 6.812,0.642 2.868,0 5.595,-0.19 8.181,-0.568 1.199,-0.175 2.294,-0.386 4.561,-1.084 V -7.03 c 1.004,-0.356 1.556,-0.623 1.556,-0.623 v 5.672 c -0.195,0.172 -0.391,0.343 -0.592,0.507 -1.874,0.556 -2.88,0.746 -3.969,0.906 C 5.595,-0.19 2.868,0 0,0" /></g><g
           transform="translate(237.5224,39.9957)"
           id="g252"><path
             id="path254"
             style="fill:#231f20;fill-opacity:1;fill-rule:nonzero;stroke:none"
             d="m 0,0 -2.638,-5.842 c 0.148,-0.095 0.294,-0.193 0.444,-0.284 L 0.572,0 Z" /></g><g
           transform="translate(243.0717,68.2042)"
           id="g256"><path
             id="path258"
             style="fill:#231f20;fill-opacity:1;fill-rule:nonzero;stroke:none"
             d="m 0,0 -1.08,-2.179 h 6.364 l 13.677,-27.499 c 0.561,0.695 1.081,1.426 1.549,2.192 L 6.84,0 Z" /></g><g
           transform="translate(245.6796,56.9802)"
           id="g260"><path
             id="path262"
             style="fill:#231f20;fill-opacity:1;fill-rule:nonzero;stroke:none"
             d="M 0,0 -0.275,0.687 -5.819,-11.716 H 4.687 l -0.871,2.178 h -8.079 z" /></g><g
           transform="translate(64.4056,49.5764)"
           id="g264"><path
             id="path266"
             style="fill:#ef2f32;fill-opacity:1;fill-rule:nonzero;stroke:none"
             d="m 0,0 v -5.303 l 9.709,0.005 0.113,-5.984 0.028,-1.49 c -1.332,-1.063 -7.711,-2.215 -12.85,0 -5.138,2.215 -7.531,5.759 -7.353,12.229 0.085,3.13 1.147,5.572 2.862,7.422 1.83,1.974 4.403,3.273 7.334,4.005 6.074,1.516 15.941,-0.773 15.941,-0.773 l 0.362,-0.168 0.018,2.592 0.023,3.358 c -1.171,0.3 -2.792,0.608 -4.862,0.925 -2.071,0.316 -4.466,0.475 -7.184,0.475 -2.635,0 -5.281,-0.325 -7.937,-0.975 -2.657,-0.649 -5.061,-1.699 -7.215,-3.148 -1.307,-0.879 -2.46,-1.92 -3.467,-3.117 -0.653,-0.778 -1.245,-1.62 -1.772,-2.531 -1.339,-2.316 -2.008,-5.123 -2.008,-8.421 0,-1.266 0.093,-2.46 0.27,-3.587 2.677,-8.251 10.423,-14.219 19.567,-14.219 3.401,0 6.607,0.831 9.433,2.293 2.722,1.407 5.089,3.402 6.932,5.819 L 17.944,0 H 1.556 Z" /></g><g
           transform="translate(158.0847,51.1885)"
           id="g268"><path
             id="path270"
             style="fill:#ef2f32;fill-opacity:1;fill-rule:nonzero;stroke:none"
             d="m 0,0 c -1.853,-0.865 -4.377,-1.298 -7.574,-1.298 h -4.795 V 9.139 c 0.427,0.071 0.947,0.121 1.556,0.153 0.33,0.018 0.686,0.03 1.07,0.037 1.09,0.018 2.219,0.027 3.387,0.027 2.943,0 5.201,-0.415 6.775,-1.244 C 1.991,7.282 2.778,6.075 2.778,4.489 2.778,3.854 2.694,3.277 2.529,2.755 2.141,1.526 1.299,0.607 0,0 m 8.232,-2.512 c 0.638,0.569 1.147,1.317 1.536,2.161 1.159,2.514 1.254,5.882 0.501,7.935 -1.588,4.334 -5.426,5.569 -7.156,6.228 -4.006,1.528 -13.671,1.558 -19.308,1.398 -0.989,-0.934 -1.886,-1.966 -2.675,-3.079 -0.579,-0.817 -1.099,-1.678 -1.556,-2.577 v -18.6 c 0.457,-0.899 0.977,-1.76 1.556,-2.577 1.491,-2.104 3.366,-3.916 5.525,-5.332 0.706,-0.463 1.442,-0.885 2.205,-1.26 v 1.26 10.579 h 1.556 2.507 l 10.57,-13.17 c 1.281,0.359 2.51,0.839 3.676,1.427 1.224,0.617 2.378,1.353 3.447,2.193 l -9.751,9.98 c 1.051,0.228 2.007,0.496 2.888,0.816 1.746,0.633 3.194,1.471 4.479,2.618" /></g><g
           transform="translate(200.4696,51.8105)"
           id="g272"><path
             id="path274"
             style="fill:#ef2f32;fill-opacity:1;fill-rule:nonzero;stroke:none"
             d="m 0,0 c -4.665,0.844 -7.246,1.638 -7.178,5.265 0,0.071 0.004,0.142 0.01,0.211 0.074,1.421 0.626,2.415 1.679,3.072 1.505,0.939 4.037,1.185 7.672,0.989 6.303,-0.34 10.422,-2.341 10.422,-2.341 v 2.802 3.199 c -2.268,0.698 -3.362,0.908 -4.561,1.084 -2.586,0.378 -5.313,0.568 -8.181,0.568 -2.477,0 -4.749,-0.214 -6.812,-0.642 -0.207,-0.043 -0.408,-0.089 -0.608,-0.136 -1.368,-0.378 -2.773,-0.945 -3.932,-1.802 -0.363,-0.269 -0.758,-0.62 -1.152,-1.046 -1.409,-1.519 -2.815,-3.984 -2.764,-7.003 0.077,-4.534 2.349,-6.389 4.877,-7.581 3.216,-1.517 9.385,-2.339 12.327,-3.126 4.543,-1.216 4.806,-3.742 4.496,-5.107 -0.005,-0.02 -0.011,-0.041 -0.016,-0.061 -0.491,-1.949 -3.399,-4.397 -9.779,-4.136 -3.525,0.143 -7.536,1.054 -10.452,1.85 -0.448,0.122 -0.869,0.241 -1.26,0.355 0.4,-0.476 0.819,-0.935 1.26,-1.373 1.311,-1.303 2.798,-2.427 4.42,-3.34 2.979,-1.678 6.415,-2.64 10.078,-2.64 0.514,0 1.022,0.026 1.527,0.063 4.54,0.556 7.303,1.979 8.845,3.208 0.764,0.609 1.782,1.715 2.557,3.13 1.257,2.294 1.875,5.402 -0.274,8.533 C 9.727,-0.943 4.665,-0.844 0,0" /></g><g
           transform="translate(245.4046,57.6676)"
           id="g276"><path
             id="path278"
             style="fill:#ef2f32;fill-opacity:1;fill-rule:nonzero;stroke:none"
             d="m 0,0 0.275,-0.687 3.816,-9.538 0.871,-2.178 H -5.544 Z M 2.951,8.358 H -3.412 -3.889 L -16.65,-17.393 c 0.09,-0.138 0.179,-0.278 0.272,-0.414 1.55,-2.272 3.546,-4.213 5.858,-5.706 l 2.638,5.841 H -7.31 7.505 l 2.895,-6.655 c 0.683,0.37 1.339,0.78 1.973,1.222 1.599,1.115 3.032,2.45 4.255,3.964 z" /></g><g
           transform="translate(123.5462,35.1445)"
           id="g280"><path
             id="path282"
             style="fill:#ef2f32;fill-opacity:1;fill-rule:nonzero;stroke:none"
             d="m 0,0 v 0.005 l -0.03,1.929 h -20.519 v 9.653 h 1.557 15.22 v 2.178 3.371 h -16.777 v 8.821 h 1.557 17.932 v 2.179 3.183 h -25.539 -0.48 l 0.002,-0.456 c -0.553,-0.551 -1.07,-1.137 -1.558,-1.747 L -28.564,3.39 c 0.49,-0.607 1.012,-1.186 1.567,-1.733 1.519,-1.499 3.272,-2.761 5.197,-3.732 2.571,-1.297 5.449,-2.069 8.498,-2.179 h 1.501 c 3.049,0.11 5.927,0.882 8.498,2.179 0,0 1.741,0.921 3.303,2.075" /></g><g
           transform="translate(75.8483,18.0298)"
           id="g284"><path
             id="path286"
             style="fill:#231f20;fill-opacity:1;fill-rule:nonzero;stroke:none"
             d="m 0,0 -1.539,5.038 h 1.256 L 0.276,2.892 C 0.433,2.31 0.578,1.726 0.691,1.11 h 0.017 c 0.114,0.602 0.26,1.202 0.414,1.776 L 1.699,5.038 H 2.926 L 1.321,0 Z" /></g><g
           transform="translate(82.1723,20.1859)"
           id="g288"><path
             id="path290"
             style="fill:#231f20;fill-opacity:1;fill-rule:nonzero;stroke:none"
             d="M 0,0 H -1.721 V -1.248 H 0.207 V -2.156 H -2.865 V 2.881 H 0.101 V 1.973 H -1.721 V 0.891 l 1.721,0 z" /></g><g
           transform="translate(83.1606,18.0298)"
           id="g292"><path
             id="path294"
             style="fill:#231f20;fill-opacity:1;fill-rule:nonzero;stroke:none"
             d="M 0,0 V 5.038 H 1.256 L 2.267,3.151 C 2.537,2.665 2.83,2.03 3.041,1.501 L 3.06,1.503 C 2.998,2.127 2.961,2.865 2.961,3.675 V 5.038 H 3.999 L 3.999,0 H 2.841 L 1.808,1.933 C 1.534,2.441 1.22,3.084 1.004,3.632 L 0.981,3.631 C 1.016,3.012 1.038,2.28 1.038,1.4 V 0 Z" /></g><g
           transform="translate(89.042,22.1258)"
           id="g296"><path
             id="path298"
             style="fill:#231f20;fill-opacity:1;fill-rule:nonzero;stroke:none"
             d="M 0,0 H -1.277 V 0.942 H 2.437 V 0 H 1.144 V -4.096 H 0 Z" /></g><g
           transform="translate(93.9083,20.1023)"
           id="g300"><path
             id="path302"
             style="fill:#231f20;fill-opacity:1;fill-rule:nonzero;stroke:none"
             d="m 0,0 -0.283,1.066 c -0.079,0.3 -0.166,0.716 -0.238,1.022 H -0.538 C -0.609,1.781 -0.688,1.356 -0.764,1.064 L -1.043,0 Z m -1.197,-0.822 -0.33,-1.25 H -2.69 l 1.472,5.037 h 1.463 l 1.458,-5.037 h -1.2 l -0.352,1.25 z" /></g><g
           transform="translate(98.5461,18.0298)"
           id="g304"><path
             id="path306"
             style="fill:#231f20;fill-opacity:1;fill-rule:nonzero;stroke:none"
             d="M 0,0 V 2.024 L -1.516,5.038 H -0.23 L 0.254,3.829 C 0.397,3.478 0.508,3.177 0.622,2.833 H 0.638 C 0.74,3.161 0.855,3.478 0.991,3.836 L 1.456,5.038 H 2.718 L 1.144,2.062 V 0 Z" /></g><g
           transform="translate(107.336,19.907)"
           id="g308"><path
             id="path310"
             style="fill:#231f20;fill-opacity:1;fill-rule:nonzero;stroke:none"
             d="M 0,0 C -0.025,0.572 -0.052,1.274 -0.047,1.954 H -0.068 C -0.214,1.34 -0.412,0.653 -0.581,0.12 l -0.59,-1.915 h -0.868 l -0.53,1.894 c -0.149,0.537 -0.314,1.226 -0.43,1.855 H -3.016 C -3.039,1.309 -3.071,0.574 -3.101,-0.014 l -0.096,-1.863 h -1.037 l 0.35,5.037 h 1.439 l 0.487,-1.725 c 0.161,-0.596 0.315,-1.206 0.426,-1.79 h 0.023 c 0.125,0.576 0.285,1.211 0.452,1.795 l 0.518,1.72 H 0.879 L 1.174,-1.877 H 0.086 Z" /></g><g
           transform="translate(111.6577,20.1023)"
           id="g312"><path
             id="path314"
             style="fill:#231f20;fill-opacity:1;fill-rule:nonzero;stroke:none"
             d="m 0,0 -0.283,1.066 c -0.079,0.3 -0.166,0.716 -0.238,1.022 H -0.538 C -0.609,1.781 -0.688,1.356 -0.764,1.064 L -1.043,0 Z m -1.197,-0.822 -0.33,-1.25 H -2.69 l 1.472,5.037 h 1.463 l 1.458,-5.037 h -1.2 l -0.352,1.25 z" /></g><g
           transform="translate(114.0299,18.0298)"
           id="g316"><path
             id="path318"
             style="fill:#231f20;fill-opacity:1;fill-rule:nonzero;stroke:none"
             d="M 0,0 V 5.038 H 1.256 L 2.267,3.151 C 2.537,2.665 2.83,2.03 3.041,1.501 L 3.06,1.503 C 2.998,2.127 2.961,2.865 2.961,3.675 V 5.038 H 3.999 L 3.999,0 H 2.841 L 1.808,1.933 C 1.534,2.441 1.22,3.084 1.004,3.632 L 0.981,3.631 C 1.016,3.012 1.038,2.28 1.038,1.4 V 0 Z" /></g><g
           transform="translate(119.9113,22.1258)"
           id="g320"><path
             id="path322"
             style="fill:#231f20;fill-opacity:1;fill-rule:nonzero;stroke:none"
             d="M 0,0 H -1.277 V 0.942 H 2.437 V 0 H 1.144 V -4.096 H 0 Z" /></g><g
           transform="translate(125.8169,20.1859)"
           id="g324"><path
             id="path326"
             style="fill:#231f20;fill-opacity:1;fill-rule:nonzero;stroke:none"
             d="M 0,0 H -1.721 V -1.248 H 0.207 V -2.156 H -2.865 V 2.881 H 0.101 V 1.973 H -1.721 V 0.891 l 1.721,0 z" /></g><g
           transform="translate(126.8052,18.0298)"
           id="g328"><path
             id="path330"
             style="fill:#231f20;fill-opacity:1;fill-rule:nonzero;stroke:none"
             d="M 0,0 V 5.038 H 1.256 L 2.267,3.151 C 2.537,2.665 2.83,2.03 3.041,1.501 L 3.06,1.503 C 2.998,2.127 2.961,2.865 2.961,3.675 V 5.038 H 3.999 L 3.999,0 H 2.841 L 1.808,1.933 C 1.534,2.441 1.22,3.084 1.004,3.632 L 0.981,3.631 C 1.016,3.012 1.038,2.28 1.038,1.4 V 0 Z" /></g><path
           id="path332"
           style="fill:#231f20;fill-opacity:1;fill-rule:nonzero;stroke:none"
           d="m 132.947,18.03 h -1.144 v 5.038 h 1.144 z" /><g
           transform="translate(138.0407,19.907)"
           id="g334"><path
             id="path336"
             style="fill:#231f20;fill-opacity:1;fill-rule:nonzero;stroke:none"
             d="M 0,0 C -0.025,0.572 -0.052,1.274 -0.047,1.954 H -0.068 C -0.214,1.34 -0.412,0.653 -0.581,0.12 l -0.59,-1.915 h -0.868 l -0.53,1.894 c -0.149,0.537 -0.314,1.226 -0.43,1.855 H -3.016 C -3.039,1.309 -3.071,0.574 -3.101,-0.014 l -0.096,-1.863 h -1.037 l 0.35,5.037 h 1.439 l 0.487,-1.725 c 0.161,-0.596 0.315,-1.206 0.426,-1.79 h 0.023 c 0.125,0.576 0.285,1.211 0.452,1.795 l 0.518,1.72 H 0.879 L 1.174,-1.877 H 0.086 Z" /></g><path
           id="path338"
           style="fill:#231f20;fill-opacity:1;fill-rule:nonzero;stroke:none"
           d="m 141.226,18.03 h -1.144 v 5.038 h 1.144 z" /><g
           transform="translate(145.0934,20.1859)"
           id="g340"><path
             id="path342"
             style="fill:#231f20;fill-opacity:1;fill-rule:nonzero;stroke:none"
             d="M 0,0 H -1.721 V -1.248 H 0.207 V -2.156 H -2.865 V 2.881 H 0.101 V 1.973 H -1.721 V 0.891 l 1.721,0 z" /></g><g
           transform="translate(146.0816,18.0298)"
           id="g344"><path
             id="path346"
             style="fill:#231f20;fill-opacity:1;fill-rule:nonzero;stroke:none"
             d="M 0,0 V 5.038 H 1.256 L 2.267,3.151 C 2.537,2.665 2.83,2.03 3.041,1.501 L 3.06,1.503 C 2.998,2.127 2.961,2.865 2.961,3.675 V 5.038 H 3.999 L 3.999,0 H 2.841 L 1.808,1.933 C 1.534,2.441 1.22,3.084 1.004,3.632 L 0.981,3.631 C 1.016,3.012 1.038,2.28 1.038,1.4 V 0 Z" /></g><g
           transform="translate(151.963,22.1258)"
           id="g348"><path
             id="path350"
             style="fill:#231f20;fill-opacity:1;fill-rule:nonzero;stroke:none"
             d="M 0,0 H -1.277 V 0.942 H 2.437 V 0 H 1.144 V -4.096 H 0 Z" /></g><g
           transform="translate(155.7685,20.5396)"
           id="g352"><path
             id="path354"
             style="fill:#231f20;fill-opacity:1;fill-rule:nonzero;stroke:none"
             d="m 0,0 c 0,-1.034 0.408,-1.696 1.091,-1.696 0.695,0 1.067,0.734 1.067,1.726 C 2.158,0.932 1.8,1.714 1.086,1.714 0.397,1.714 0,1.01 0,0 m 3.362,0.071 c 0,-1.727 -0.944,-2.656 -2.325,-2.656 -1.454,0 -2.241,1.153 -2.241,2.574 0,1.467 0.883,2.614 2.322,2.614 1.516,0 2.244,-1.21 2.244,-2.532" /></g><g
           transform="translate(162.4971,18.8632)"
           id="g356"><path
             id="path358"
             style="fill:#231f20;fill-opacity:1;fill-rule:nonzero;stroke:none"
             d="M 0,0 C 0.089,-0.017 0.228,-0.018 0.347,-0.018 1.253,-0.024 1.879,0.513 1.879,1.773 1.881,2.816 1.347,3.39 0.441,3.39 0.237,3.39 0.093,3.374 0,3.352 Z m -1.141,4.133 c 0.384,0.065 0.898,0.105 1.439,0.105 0.901,0 1.498,-0.168 1.954,-0.513 0.52,-0.39 0.831,-1.02 0.831,-1.936 0,-0.982 -0.339,-1.665 -0.831,-2.068 -0.497,-0.407 -1.249,-0.603 -2.19,-0.603 -0.532,0 -0.938,0.034 -1.203,0.069 z" /></g><g
           transform="translate(169.1951,20.1859)"
           id="g360"><path
             id="path362"
             style="fill:#231f20;fill-opacity:1;fill-rule:nonzero;stroke:none"
             d="M 0,0 H -1.721 V -1.248 H 0.207 V -2.156 H -2.865 V 2.881 H 0.101 V 1.973 H -1.721 V 0.891 l 1.721,0 z" /></g><g
           transform="translate(174.5292,20.1859)"
           id="g364"><path
             id="path366"
             style="fill:#231f20;fill-opacity:1;fill-rule:nonzero;stroke:none"
             d="M 0,0 H -1.721 V -1.248 H 0.207 V -2.156 H -2.865 V 2.881 H 0.101 V 1.973 H -1.721 V 0.891 l 1.721,0 z" /></g><g
           transform="translate(178.6287,20.5692)"
           id="g368"><path
             id="path370"
             style="fill:#231f20;fill-opacity:1;fill-rule:nonzero;stroke:none"
             d="m 0,0 c 0,0.928 -0.361,1.684 -1.068,1.684 -0.698,0 -1.093,-0.757 -1.09,-1.704 -0.006,-0.978 0.388,-1.706 1.083,-1.706 C -0.379,-1.726 0,-1.003 0,0 m 0.948,-3.391 c -0.662,0.197 -1.253,0.429 -1.869,0.689 -0.117,0.051 -0.23,0.081 -0.329,0.087 -1.144,0.051 -2.112,0.923 -2.112,2.567 0,1.465 0.873,2.622 2.333,2.622 1.511,0 2.233,-1.218 2.233,-2.527 0,-1.175 -0.475,-1.972 -1.111,-2.256 v -0.032 c 0.383,-0.123 0.812,-0.22 1.201,-0.312 z" /></g><g
           transform="translate(181.7072,23.0674)"
           id="g372"><path
             id="path374"
             style="fill:#231f20;fill-opacity:1;fill-rule:nonzero;stroke:none"
             d="m 0,0 v -3.01 c 0,-0.831 0.314,-1.21 0.82,-1.21 0.527,0 0.833,0.356 0.833,1.21 V 0 h 1.144 v -2.909 c 0,-1.477 -0.731,-2.204 -2.004,-2.204 -1.264,0 -1.937,0.712 -1.937,2.21 l 0,2.903 z" /></g><path
           id="path376"
           style="fill:#231f20;fill-opacity:1;fill-rule:nonzero;stroke:none"
           d="m 186.633,18.03 h -1.144 v 5.038 h 1.144 z" /><g
           transform="translate(188.77,20.7118)"
           id="g378"><path
             id="path380"
             style="fill:#231f20;fill-opacity:1;fill-rule:nonzero;stroke:none"
             d="m 0,0 c 0.085,-0.018 0.188,-0.024 0.329,-0.024 0.599,0 0.942,0.319 0.942,0.818 0,0.456 -0.289,0.754 -0.854,0.754 C 0.223,1.548 0.08,1.53 0,1.51 Z M -1.135,2.286 C -0.79,2.345 -0.313,2.39 0.315,2.39 1.011,2.39 1.526,2.269 1.877,1.988 2.207,1.734 2.404,1.315 2.404,0.842 2.404,0.332 2.235,-0.078 1.933,-0.357 1.549,-0.712 0.964,-0.876 0.347,-0.876 0.215,-0.876 0.096,-0.869 0,-0.857 v -1.825 h -1.135 z" /></g><g
           transform="translate(192.8493,20.5396)"
           id="g382"><path
             id="path384"
             style="fill:#231f20;fill-opacity:1;fill-rule:nonzero;stroke:none"
             d="m 0,0 c 0,-1.034 0.408,-1.696 1.091,-1.696 0.695,0 1.067,0.734 1.067,1.726 C 2.158,0.932 1.8,1.714 1.086,1.714 0.397,1.714 0,1.01 0,0 m 3.362,0.071 c 0,-1.727 -0.944,-2.656 -2.325,-2.656 -1.454,0 -2.241,1.153 -2.241,2.574 0,1.467 0.883,2.614 2.322,2.614 1.516,0 2.244,-1.21 2.244,-2.532" /></g><g
           transform="translate(201.9059,18.1491)"
           id="g386"><path
             id="path388"
             style="fill:#231f20;fill-opacity:1;fill-rule:nonzero;stroke:none"
             d="m 0,0 c -0.194,-0.091 -0.63,-0.188 -1.182,-0.188 -1.685,0 -2.538,1.081 -2.538,2.515 0,1.772 1.234,2.66 2.657,2.66 0.544,0 0.949,-0.102 1.125,-0.196 L -0.16,3.912 c -0.202,0.086 -0.479,0.163 -0.845,0.163 -0.835,0 -1.509,-0.528 -1.509,-1.686 0,-1.067 0.581,-1.653 1.512,-1.653 0.308,0 0.644,0.059 0.847,0.137 z" /></g><g
           transform="translate(203.3924,20.5396)"
           id="g390"><path
             id="path392"
             style="fill:#231f20;fill-opacity:1;fill-rule:nonzero;stroke:none"
             d="m 0,0 c 0,-1.034 0.408,-1.696 1.091,-1.696 0.695,0 1.067,0.734 1.067,1.726 C 2.158,0.932 1.8,1.714 1.086,1.714 0.397,1.714 0,1.01 0,0 m 3.362,0.071 c 0,-1.727 -0.944,-2.656 -2.325,-2.656 -1.454,0 -2.241,1.153 -2.241,2.574 0,1.467 0.883,2.614 2.322,2.614 1.516,0 2.244,-1.21 2.244,-2.532" /></g><g
           transform="translate(207.4991,18.0298)"
           id="g394"><path
             id="path396"
             style="fill:#231f20;fill-opacity:1;fill-rule:nonzero;stroke:none"
             d="M 0,0 V 5.038 H 1.256 L 2.267,3.151 C 2.537,2.665 2.83,2.03 3.041,1.501 L 3.06,1.503 C 2.998,2.127 2.961,2.865 2.961,3.675 V 5.038 H 3.999 L 3.999,0 H 2.841 L 1.808,1.933 C 1.534,2.441 1.22,3.084 1.004,3.632 L 0.981,3.631 C 1.016,3.012 1.038,2.28 1.038,1.4 V 0 Z" /></g><g
           transform="translate(213.3806,22.1258)"
           id="g398"><path
             id="path400"
             style="fill:#231f20;fill-opacity:1;fill-rule:nonzero;stroke:none"
             d="M 0,0 H -1.277 V 0.942 H 2.437 V 0 H 1.144 V -4.096 H 0 Z" /></g><g
           transform="translate(217.5557,20.8204)"
           id="g402"><path
             id="path404"
             style="fill:#231f20;fill-opacity:1;fill-rule:nonzero;stroke:none"
             d="M 0,0 H 0.383 C 0.932,0 1.256,0.306 1.256,0.743 1.256,1.195 0.97,1.452 0.451,1.457 0.223,1.457 0.076,1.442 0,1.421 Z M -1.135,2.176 C -0.77,2.238 -0.25,2.281 0.312,2.281 1.029,2.281 1.565,2.178 1.931,1.889 2.247,1.638 2.398,1.29 2.398,0.836 2.398,0.227 1.98,-0.228 1.502,-0.408 V -0.429 C 1.865,-0.57 2.064,-0.898 2.188,-1.386 2.333,-1.952 2.487,-2.599 2.587,-2.791 H 1.41 c -0.077,0.144 -0.204,0.58 -0.334,1.184 -0.13,0.629 -0.335,0.799 -0.781,0.804 H 0 v -1.988 h -1.135 z" /></g><g
           transform="translate(223.1346,20.1023)"
           id="g406"><path
             id="path408"
             style="fill:#231f20;fill-opacity:1;fill-rule:nonzero;stroke:none"
             d="m 0,0 -0.283,1.066 c -0.079,0.3 -0.166,0.716 -0.238,1.022 H -0.538 C -0.609,1.781 -0.688,1.356 -0.764,1.064 L -1.043,0 Z m -1.197,-0.822 -0.33,-1.25 H -2.69 l 1.472,5.037 h 1.463 l 1.458,-5.037 h -1.2 l -0.352,1.25 z" /></g><path
           id="path410"
           style="fill:#231f20;fill-opacity:1;fill-rule:nonzero;stroke:none"
           d="m 228.131,18.03 h -1.144 v 5.038 h 1.144 z" /><g
           transform="translate(229.1332,18.0298)"
           id="g412"><path
             id="path414"
             style="fill:#231f20;fill-opacity:1;fill-rule:nonzero;stroke:none"
             d="M 0,0 V 5.038 H 1.256 L 2.267,3.151 C 2.537,2.665 2.83,2.03 3.041,1.501 L 3.06,1.503 C 2.998,2.127 2.961,2.865 2.961,3.675 V 5.038 H 3.999 L 3.999,0 H 2.841 L 1.808,1.933 C 1.534,2.441 1.22,3.084 1.004,3.632 L 0.981,3.631 C 1.016,3.012 1.038,2.28 1.038,1.4 V 0 Z" /></g><g
           transform="translate(237.6001,18.1491)"
           id="g416"><path
             id="path418"
             style="fill:#231f20;fill-opacity:1;fill-rule:nonzero;stroke:none"
             d="m 0,0 c -0.194,-0.091 -0.63,-0.188 -1.182,-0.188 -1.685,0 -2.538,1.081 -2.538,2.515 0,1.772 1.234,2.66 2.657,2.66 0.544,0 0.949,-0.102 1.125,-0.196 L -0.16,3.912 c -0.202,0.086 -0.479,0.163 -0.845,0.163 -0.835,0 -1.509,-0.528 -1.509,-1.686 0,-1.067 0.581,-1.653 1.512,-1.653 0.308,0 0.644,0.059 0.847,0.137 z" /></g><g
           transform="translate(241.1865,20.1859)"
           id="g420"><path
             id="path422"
             style="fill:#231f20;fill-opacity:1;fill-rule:nonzero;stroke:none"
             d="M 0,0 H -1.721 V -1.248 H 0.207 V -2.156 H -2.865 V 2.881 H 0.101 V 1.973 H -1.721 V 0.891 l 1.721,0 z" /></g><g
           transform="translate(242.1749,18.0298)"
           id="g424"><path
             id="path426"
             style="fill:#231f20;fill-opacity:1;fill-rule:nonzero;stroke:none"
             d="M 0,0 V 5.038 H 1.256 L 2.267,3.151 C 2.537,2.665 2.83,2.03 3.041,1.501 L 3.06,1.503 C 2.998,2.127 2.961,2.865 2.961,3.675 V 5.038 H 3.999 L 3.999,0 H 2.841 L 1.808,1.933 C 1.534,2.441 1.22,3.084 1.004,3.632 L 0.981,3.631 C 1.016,3.012 1.038,2.28 1.038,1.4 V 0 Z" /></g><g
           transform="translate(248.3136,18.8632)"
           id="g428"><path
             id="path430"
             style="fill:#231f20;fill-opacity:1;fill-rule:nonzero;stroke:none"
             d="M 0,0 C 0.089,-0.017 0.228,-0.018 0.347,-0.018 1.253,-0.024 1.879,0.513 1.879,1.773 1.881,2.816 1.347,3.39 0.441,3.39 0.237,3.39 0.093,3.374 0,3.352 Z m -1.141,4.133 c 0.384,0.065 0.898,0.105 1.439,0.105 0.901,0 1.498,-0.168 1.954,-0.513 0.52,-0.39 0.831,-1.02 0.831,-1.936 0,-0.982 -0.339,-1.665 -0.831,-2.068 -0.497,-0.407 -1.249,-0.603 -2.19,-0.603 -0.532,0 -0.938,0.034 -1.203,0.069 z" /></g><path
           id="path432"
           style="fill:#231f20;fill-opacity:1;fill-rule:nonzero;stroke:none"
           d="m 253.29,18.03 h -1.144 v 5.038 h 1.144 z" /><g
           transform="translate(255.2455,20.5396)"
           id="g434"><path
             id="path436"
             style="fill:#231f20;fill-opacity:1;fill-rule:nonzero;stroke:none"
             d="m 0,0 c 0,-1.034 0.408,-1.696 1.09,-1.696 0.696,0 1.068,0.734 1.068,1.726 C 2.158,0.932 1.8,1.714 1.086,1.714 0.397,1.714 0,1.01 0,0 m 3.362,0.071 c 0,-1.727 -0.944,-2.656 -2.325,-2.656 -1.455,0 -2.241,1.153 -2.241,2.574 0,1.467 0.882,2.614 2.322,2.614 1.516,0 2.244,-1.21 2.244,-2.532" /></g><g
           transform="translate(34.3988,90.2808)"
           id="g438"><path
             id="path440"
             style="fill:#f46e2a;fill-opacity:1;fill-rule:nonzero;stroke:none"
             d="M 0,0 16.629,-3.527 V 10.421 L -0.252,5.971 h -1.839 v 1.837 c 0,1.526 -1.237,2.764 -2.763,2.764 v 0 c -1.527,0 -2.764,-1.238 -2.764,-2.764 V 4.726 L -22.423,-6.063 v -4.59 L -7.618,0.136 v -3.509 h -1.011 v -2.156 c -4.322,-1.549 -7.415,-5.68 -7.415,-10.535 v -44.997 c 0,-6.18 5.01,-11.19 11.19,-11.19 v 0 c 6.18,0 11.189,5.01 11.189,11.19 v 44.997 c 0,4.855 -3.092,8.986 -7.414,10.535 v 2.156 H -2.091 V 0 Z" /></g><g
           transform="translate(34.3853,67.5937)"
           id="g442"><path
             id="path444"
             style="fill:#fcd528;fill-opacity:1;fill-rule:nonzero;stroke:none"
             d="m 0,0 c -0.168,0 -0.253,-0.113 -0.253,-0.335 0,-0.327 0.179,-0.327 0.255,-0.327 0.067,0 0.244,0 0.244,0.339 C 0.246,-0.202 0.214,0 0,0" /></g><g
           transform="translate(34.3579,65.853)"
           id="g446"><path
             id="path448"
             style="fill:#fcd528;fill-opacity:1;fill-rule:nonzero;stroke:none"
             d="M 0,0 C -0.799,0 -1.392,0.418 -1.551,1.051 -1.56,1.044 -1.568,1.037 -1.577,1.031 -1.803,0.879 -2.124,0.786 -2.493,0.766 V 0.031 H -3.824 V 0.632 C -4.044,0.231 -4.497,0 -5.135,0 -5.456,0 -5.726,0.06 -5.944,0.17 L -5.843,0.031 H -7.367 L -7.472,0.174 C -7.526,0.248 -7.579,0.369 -7.625,0.497 V 0.031 H -8.956 V 0.137 L -9.015,0.123 C -9.24,0.067 -9.621,0.011 -9.965,0.011 c -0.54,0 -0.954,0.102 -1.263,0.311 -0.361,0.24 -0.566,0.631 -0.562,1.071 0.008,0.846 0.77,1.415 1.896,1.415 0.458,0 0.728,-0.073 0.823,-0.104 l 0.115,-0.039 v 0.054 l 0.308,0.038 c 0.23,0.029 0.539,0.045 0.846,0.045 0.494,0 0.824,-0.063 1.071,-0.204 0.063,-0.037 0.119,-0.079 0.17,-0.124 v 0.314 h 1.336 V 1.211 c 0,-0.092 0.019,-0.117 0.02,-0.117 0,0 0.019,-0.014 0.085,-0.014 0.071,0 0.095,0.013 0.097,0.014 -0.001,0 0.016,0.029 0.016,0.117 v 1.577 h 1.336 v -0.05 l 0.155,0.02 c 0.236,0.029 0.522,0.044 0.848,0.044 0.465,0 0.795,-0.066 1.041,-0.209 0.146,-0.082 0.264,-0.196 0.345,-0.33 0.29,0.344 0.762,0.556 1.327,0.556 0.48,0 0.885,-0.14 1.173,-0.404 C 1.491,2.165 1.642,1.816 1.642,1.435 1.642,0.563 0.997,0 0,0 M -16.003,-7.965 H 6.376 V 3.954 h -22.379 z" /></g><g
           transform="translate(25.4019,67.7629)"
           id="g450"><path
             id="path452"
             style="fill:#fcd528;fill-opacity:1;fill-rule:nonzero;stroke:none"
             d="M 0,0 V 0.027 L -0.009,0 Z" /></g><g
           transform="translate(24.3925,66.1343)"
           id="g454"><path
             id="path456"
             style="fill:#ffffff;fill-opacity:1;fill-rule:nonzero;stroke:none"
             d="m 0,0 c -0.484,0 -0.848,0.087 -1.111,0.265 -0.285,0.189 -0.447,0.497 -0.443,0.844 0.006,0.697 0.645,1.147 1.626,1.147 0.43,0 0.673,-0.069 0.737,-0.09 L 0.892,2.138 0.708,1.613 0.639,1.634 c -0.16,0.049 -0.332,0.071 -0.558,0.071 -0.244,0 -0.811,-0.057 -0.811,-0.588 0,-0.427 0.378,-0.579 0.731,-0.579 0.075,0 0.138,0.004 0.181,0.01 V 0.832 H -0.214 V 1.358 H 0.947 V 0.119 L 0.885,0.104 C 0.676,0.052 0.321,0 0,0" /></g><g
           transform="translate(26.5955,67.4612)"
           id="g458"><path
             id="path460"
             style="fill:#ffffff;fill-opacity:1;fill-rule:nonzero;stroke:none"
             d="m 0,0 c 0.242,0 0.405,0.085 0.405,0.212 0,0.172 -0.23,0.2 -0.368,0.201 -0.078,0 -0.133,-0.003 -0.17,-0.005 l 0,-0.408 z m 0.533,-1.307 -0.024,0.032 c -0.053,0.072 -0.127,0.262 -0.199,0.508 -0.06,0.209 -0.133,0.263 -0.36,0.264 h -0.083 v -0.804 h -0.79 v 2.179 l 0.071,0.008 c 0.22,0.028 0.517,0.044 0.812,0.044 0.445,0 0.733,-0.052 0.936,-0.169 C 1.097,0.639 1.199,0.469 1.199,0.25 1.199,0.039 1.061,-0.151 0.833,-0.266 0.942,-0.343 1.022,-0.459 1.077,-0.618 1.089,-0.653 1.102,-0.689 1.114,-0.725 1.173,-0.896 1.247,-1.108 1.287,-1.163 L 1.39,-1.307 Z" /></g><g
           transform="translate(29.2232,66.1235)"
           id="g462"><path
             id="path464"
             style="fill:#ffffff;fill-opacity:1;fill-rule:nonzero;stroke:none"
             d="m 0,0 c -0.527,0 -1.156,0.171 -1.156,0.984 v 1.263 h 0.795 V 0.94 c 0,-0.27 0.123,-0.401 0.376,-0.401 0.265,0 0.383,0.124 0.383,0.401 V 2.247 H 1.193 V 0.981 C 1.193,0.348 0.769,0 0,0" /></g><g
           transform="translate(31.5942,67.4096)"
           id="g466"><path
             id="path468"
             style="fill:#ffffff;fill-opacity:1;fill-rule:nonzero;stroke:none"
             d="m 0,0 c 0.029,-0.002 0.062,-0.002 0.103,-0.002 0.215,0 0.444,0.063 0.444,0.242 0,0.196 -0.276,0.217 -0.395,0.217 C 0.086,0.457 0.036,0.454 0,0.451 Z m -0.79,-1.256 v 2.18 l 0.071,0.009 c 0.226,0.028 0.5,0.042 0.815,0.042 C 0.511,0.975 0.798,0.92 1,0.803 1.213,0.683 1.336,0.485 1.336,0.26 1.336,0.025 1.232,-0.169 1.035,-0.301 0.823,-0.445 0.495,-0.524 0.113,-0.524 0.074,-0.524 0.036,-0.523 0,-0.522 v -0.734 z" /></g><g
           transform="translate(34.3853,67.8641)"
           id="g470"><path
             id="path472"
             style="fill:#ffffff;fill-opacity:1;fill-rule:nonzero;stroke:none"
             d="m 0,0 c -0.323,0 -0.524,-0.232 -0.524,-0.605 0,-0.375 0.197,-0.598 0.526,-0.598 0.322,0 0.514,0.228 0.514,0.61 C 0.516,-0.32 0.381,0 0,0 m -0.027,-1.741 c -0.793,0 -1.325,0.455 -1.325,1.131 0,0.676 0.563,1.147 1.37,1.147 0.41,0 0.753,-0.115 0.99,-0.332 0.217,-0.199 0.336,-0.477 0.336,-0.782 0,-0.718 -0.525,-1.164 -1.371,-1.164" /></g><g
           transform="translate(23.3134,61.3095)"
           id="g474"><path
             id="path476"
             style="fill:#ef2f32;fill-opacity:1;fill-rule:nonzero;stroke:none"
             d="m 0,0 c -0.318,-0.076 -0.935,-0.173 -1.523,-0.173 -0.836,0 -1.445,0.144 -1.879,0.429 -0.463,0.299 -0.715,0.768 -0.71,1.304 0.012,1.187 1.206,1.803 2.715,1.803 0.583,0 1.028,-0.075 1.255,-0.147 L -0.365,2.601 c -0.244,0.073 -0.545,0.127 -1.016,0.127 -0.883,0 -1.562,-0.352 -1.562,-1.152 0,-0.751 0.614,-1.135 1.421,-1.135 0.212,0 0.381,0.016 0.459,0.04 v 0.76 h -0.696 v 0.595 l 1.759,0 z" /></g><g
           transform="translate(26.9726,62.6551)"
           id="g478"><path
             id="path480"
             style="fill:#ef2f32;fill-opacity:1;fill-rule:nonzero;stroke:none"
             d="M 0,0 H -1.679 V -0.86 H 0.202 V -1.485 H -2.795 V 1.984 H 0.098 V 1.359 H -1.679 V 0.614 H 0 Z" /></g><g
           transform="translate(29.0451,63.0919)"
           id="g482"><path
             id="path484"
             style="fill:#ef2f32;fill-opacity:1;fill-rule:nonzero;stroke:none"
             d="M 0,0 H 0.374 C 0.909,0 1.225,0.211 1.225,0.512 1.225,0.823 0.947,1 0.44,1.004 0.218,1.004 0.074,0.993 0,0.979 Z m -1.107,1.499 c 0.356,0.042 0.863,0.072 1.411,0.072 0.699,0 1.222,-0.071 1.579,-0.27 0.309,-0.172 0.456,-0.413 0.456,-0.725 0,-0.419 -0.407,-0.733 -0.874,-0.857 v -0.015 c 0.354,-0.096 0.549,-0.323 0.669,-0.658 0.141,-0.39 0.292,-0.836 0.39,-0.968 H 1.375 C 1.301,-1.823 1.176,-1.523 1.05,-1.107 0.923,-0.674 0.723,-0.556 0.287,-0.553 H 0 v -1.369 h -1.107 z" /></g><g
           transform="translate(32.1795,61.9442)"
           id="g486"><path
             id="path488"
             style="fill:#ef2f32;fill-opacity:1;fill-rule:nonzero;stroke:none"
             d="m 0,0 c 0.278,-0.102 0.724,-0.193 1.158,-0.193 0.516,0 0.785,0.154 0.785,0.382 0,0.224 -0.242,0.35 -0.804,0.509 -0.813,0.231 -1.286,0.561 -1.286,1.01 0,0.581 0.681,1.034 1.852,1.034 0.514,0 0.906,-0.074 1.163,-0.159 L 2.64,1.968 C 2.453,2.033 2.128,2.119 1.691,2.119 1.207,2.119 0.976,1.956 0.976,1.777 0.976,1.56 1.223,1.459 1.856,1.273 2.7,1.029 3.07,0.7 3.07,0.248 c 0,-0.597 -0.67,-1.069 -1.964,-1.069 -0.533,0 -1.062,0.095 -1.314,0.192 z" /></g><g
           transform="translate(38.2259,62.5973)"
           id="g490"><path
             id="path492"
             style="fill:#ef2f32;fill-opacity:1;fill-rule:nonzero;stroke:none"
             d="M 0,0 -0.276,0.734 C -0.353,0.941 -0.438,1.228 -0.508,1.438 H -0.525 C -0.594,1.226 -0.672,0.935 -0.746,0.733 L -1.018,0 Z M -1.167,-0.566 -1.49,-1.427 h -1.134 l 1.436,3.469 H 0.238 L 1.661,-1.427 H 0.49 l -0.343,0.861 z" /></g></g></g></g></svg>